<mxfile host="Electron" modified="2024-06-11T18:10:57.123Z" agent="Mozilla/5.0 (Windows NT 10.0; Win64; x64) AppleWebKit/537.36 (KHTML, like Gecko) draw.io/23.1.5 Chrome/120.0.6099.109 Electron/28.1.0 Safari/537.36" etag="XRBbHwhUFdJyhiX-XaT4" version="23.1.5" type="device">
  <diagram name="Page-1" id="LvSKNlYQBY2EjUd46pAL">
    <mxGraphModel dx="1480" dy="893" grid="1" gridSize="10" guides="1" tooltips="1" connect="1" arrows="1" fold="1" page="1" pageScale="1" pageWidth="583" pageHeight="413" math="0" shadow="0">
      <root>
        <mxCell id="0" />
        <mxCell id="1" parent="0" />
        <mxCell id="z4x0_e60OCUCnRRIUQnb-69" value="" style="endArrow=none;html=1;rounded=1;strokeColor=#000000;strokeWidth=7;startArrow=none;startFill=0;startSize=0;curved=0;" parent="1" edge="1">
          <mxGeometry width="50" height="50" relative="1" as="geometry">
            <mxPoint x="500" y="306" as="sourcePoint" />
            <mxPoint x="110" y="284" as="targetPoint" />
            <Array as="points">
              <mxPoint x="348" y="306" />
              <mxPoint x="331" y="306" />
              <mxPoint x="263" y="284" />
              <mxPoint x="250" y="284" />
            </Array>
          </mxGeometry>
        </mxCell>
        <mxCell id="z4x0_e60OCUCnRRIUQnb-68" value="" style="endArrow=none;html=1;rounded=1;strokeColor=#000000;strokeWidth=7;startArrow=none;startFill=0;startSize=0;curved=0;" parent="1" edge="1">
          <mxGeometry width="50" height="50" relative="1" as="geometry">
            <mxPoint x="530" y="258" as="sourcePoint" />
            <mxPoint x="80" y="218" as="targetPoint" />
            <Array as="points">
              <mxPoint x="381" y="258" />
              <mxPoint x="247" y="218" />
              <mxPoint x="229" y="218" />
            </Array>
          </mxGeometry>
        </mxCell>
        <mxCell id="z4x0_e60OCUCnRRIUQnb-67" value="" style="endArrow=none;html=1;rounded=1;strokeColor=#000000;strokeWidth=7;startArrow=none;startFill=0;startSize=0;curved=0;" parent="1" edge="1">
          <mxGeometry width="50" height="50" relative="1" as="geometry">
            <mxPoint x="560" y="212" as="sourcePoint" />
            <mxPoint x="110" y="152" as="targetPoint" />
            <Array as="points">
              <mxPoint x="440" y="212" />
              <mxPoint x="430" y="212" />
              <mxPoint x="233" y="152" />
              <mxPoint x="220" y="152" />
            </Array>
          </mxGeometry>
        </mxCell>
        <mxCell id="z4x0_e60OCUCnRRIUQnb-66" value="" style="endArrow=none;html=1;rounded=1;strokeColor=#000000;strokeWidth=7;startArrow=none;startFill=0;startSize=0;curved=0;" parent="1" edge="1">
          <mxGeometry width="50" height="50" relative="1" as="geometry">
            <mxPoint x="560" y="144" as="sourcePoint" />
            <mxPoint x="110" y="284" as="targetPoint" />
            <Array as="points">
              <mxPoint x="430" y="144" />
              <mxPoint x="415" y="144" />
              <mxPoint x="263" y="284" />
              <mxPoint x="250" y="284" />
            </Array>
          </mxGeometry>
        </mxCell>
        <mxCell id="z4x0_e60OCUCnRRIUQnb-64" value="" style="endArrow=none;html=1;rounded=1;strokeColor=#000000;strokeWidth=7;startArrow=none;startFill=0;startSize=0;curved=0;" parent="1" edge="1">
          <mxGeometry width="50" height="50" relative="1" as="geometry">
            <mxPoint x="530" y="123" as="sourcePoint" />
            <mxPoint x="80" y="218" as="targetPoint" />
            <Array as="points">
              <mxPoint x="363" y="123" />
              <mxPoint x="348" y="123" />
              <mxPoint x="247" y="218" />
              <mxPoint x="229" y="218" />
            </Array>
          </mxGeometry>
        </mxCell>
        <mxCell id="z4x0_e60OCUCnRRIUQnb-28" value="" style="endArrow=none;html=1;rounded=1;strokeColor=#000000;strokeWidth=7;startArrow=none;startFill=0;startSize=0;curved=0;" parent="1" edge="1">
          <mxGeometry width="50" height="50" relative="1" as="geometry">
            <mxPoint x="500" y="104" as="sourcePoint" />
            <mxPoint x="110" y="152" as="targetPoint" />
            <Array as="points">
              <mxPoint x="300" y="104" />
              <mxPoint x="285" y="104" />
              <mxPoint x="233" y="152" />
              <mxPoint x="220" y="152" />
            </Array>
          </mxGeometry>
        </mxCell>
        <mxCell id="z4x0_e60OCUCnRRIUQnb-2" value="" style="endArrow=none;html=1;rounded=1;strokeColor=#000000;strokeWidth=1;curved=0;" parent="1" edge="1">
          <mxGeometry width="50" height="50" relative="1" as="geometry">
            <mxPoint x="381" y="258" as="sourcePoint" />
            <mxPoint x="381" y="258" as="targetPoint" />
            <Array as="points">
              <mxPoint x="279" y="354" />
              <mxPoint x="217" y="83" />
              <mxPoint x="484" y="163" />
            </Array>
          </mxGeometry>
        </mxCell>
        <mxCell id="z4x0_e60OCUCnRRIUQnb-16" value="" style="endArrow=none;html=1;rounded=0;strokeColor=#000000;strokeWidth=1;" parent="1" edge="1">
          <mxGeometry width="50" height="50" relative="1" as="geometry">
            <mxPoint x="284" y="103" as="sourcePoint" />
            <mxPoint x="331" y="306" as="targetPoint" />
          </mxGeometry>
        </mxCell>
        <mxCell id="z4x0_e60OCUCnRRIUQnb-17" value="" style="endArrow=none;html=1;rounded=0;strokeColor=#000000;strokeWidth=1;" parent="1" edge="1">
          <mxGeometry width="50" height="50" relative="1" as="geometry">
            <mxPoint x="349" y="124" as="sourcePoint" />
            <mxPoint x="382" y="260" as="targetPoint" />
          </mxGeometry>
        </mxCell>
        <mxCell id="z4x0_e60OCUCnRRIUQnb-18" value="" style="endArrow=none;html=1;rounded=0;strokeColor=#000000;strokeWidth=1;" parent="1" edge="1">
          <mxGeometry width="50" height="50" relative="1" as="geometry">
            <mxPoint x="415" y="145" as="sourcePoint" />
            <mxPoint x="431" y="213" as="targetPoint" />
          </mxGeometry>
        </mxCell>
        <mxCell id="z4x0_e60OCUCnRRIUQnb-26" value="" style="endArrow=none;html=1;rounded=0;strokeColor=#000000;strokeWidth=2;startArrow=none;startFill=0;startSize=0;" parent="1" edge="1">
          <mxGeometry width="50" height="50" relative="1" as="geometry">
            <mxPoint x="560" y="143" as="sourcePoint" />
            <mxPoint x="415" y="143" as="targetPoint" />
          </mxGeometry>
        </mxCell>
      </root>
    </mxGraphModel>
  </diagram>
</mxfile>
